<?xml version="1.0" encoding="utf-8"?>
<!-- Generator: Adobe Illustrator 24.0.1, SVG Export Plug-In . SVG Version: 6.00 Build 0)  -->
<svg version="1.1" id="vision_x5F_disability" xmlns="http://www.w3.org/2000/svg" xmlns:xlink="http://www.w3.org/1999/xlink"
	 x="0px" y="0px" viewBox="0 0 512 512" style="enable-background:new 0 0 512 512;" xml:space="preserve">
<style type="text/css">
	.st3{fill:#53AD9F;}
</style>
<g>
	<path class="st3" d="M410.4,264.4L410.4,264.4c-4.1-4.4-10.9-11.3-19.8-19.2c-2.7,0.3-5.5,0.5-8.4,0.5c-13.8,0-26.7-3.9-37.6-10.7
		c2.8,8.9,4.4,18.4,4.4,28.2c0,24.5-9.5,46.8-25,63.4C366.5,307.2,398.9,276.3,410.4,264.4z"/>
	<path class="st3" d="M177.7,263.3c0,43.1,35.1,78.2,78.2,78.2c43.1,0,78.2-35.1,78.2-78.2s-35.1-78.2-78.2-78.2
		C212.8,185.1,177.7,220.2,177.7,263.3z M303.9,263.3c0,26.5-21.5,48-48,48c-26.5,0-48-21.5-48-48c0-26.5,21.5-48,48-48
		S303.9,236.8,303.9,263.3z"/>
	
		<ellipse transform="matrix(0.9732 -0.2298 0.2298 0.9732 -53.6492 65.8392)" class="st3" cx="255.9" cy="263.3" rx="33.1" ry="33.1"/>
	<path class="st3" d="M382.2,230.8c31.5,0,57.1-25.6,57.1-57.1c0-31.5-25.6-57.1-57.1-57.1c-31.5,0-57.1,25.6-57.1,57.1
		C325.1,205.2,350.7,230.8,382.2,230.8z M354.5,158.6c-2.9-2.9-2.9-7.6,0-10.5c2.9-2.9,7.6-2.9,10.5,0l16.1,16.1l16.1-16.1
		c2.9-2.9,7.6-2.9,10.5,0c2.9,2.9,2.9,7.6,0,10.5l-16.1,16.1l16.1,16.1c2.9,2.9,2.9,7.6,0,10.5c-1.5,1.5-3.4,2.2-5.3,2.2
		s-3.8-0.7-5.3-2.2l-16.1-16.1L365,201.4c-1.5,1.5-3.4,2.2-5.3,2.2s-3.8-0.7-5.3-2.2c-2.9-2.9-2.9-7.6,0-10.5l16.1-16.1L354.5,158.6
		z"/>
	<path class="st3" d="M256,0C114.6,0,0,114.6,0,256s114.6,256,256,256s256-114.6,256-256S397.4,0,256,0z M403.8,327.6
		c-35.3,26.3-90.1,57.5-151.2,57.5c-0.5,0-0.9,0-1.4,0c-34-0.3-87.9-10.9-151.7-59.8c-37.8-29.1-61-57.7-62-58.9
		c-2.2-2.8-2.2-6.7,0.1-9.4c1-1.2,24.6-29.4,62.9-57.9c35.6-26.5,90.9-58,152.6-57.5c19.7,0.2,40.1,3.6,60.5,10.2
		c9.3-29,36.5-50,68.5-50c39.7,0,72,32.3,72,72c0,20-8.2,38.1-21.4,51.2c21.2,19.5,33.5,34.6,34,35.3h0c2.2,2.8,2.2,6.7-0.1,9.4
		C465.7,270.9,442.1,299.1,403.8,327.6z"/>
	<path class="st3" d="M193.4,194.5c-48.8,18.6-86.7,54.7-99.4,67.7c12.4,13.2,49.9,49.9,98.6,69.3c-18.3-17-29.7-41.2-29.7-68.1
		C162.9,236.1,174.6,211.5,193.4,194.5z"/>
	<path class="st3" d="M421,234.3c-4.1,2.6-8.4,4.8-13,6.6c11.4,10.8,17.9,18.4,18.2,18.8c2.4,2.8,2.3,6.9-0.1,9.7
		c-3.2,3.7-78.8,89.1-173.5,89.1c-0.4,0-0.8,0-1.2,0c-95.3-0.7-170.1-87.9-173.2-91.6c-2.4-2.8-2.3-6.9,0.1-9.7
		c3.2-3.7,78.8-89.1,173.5-89.1c0.4,0,0.8,0,1.2,0c18.7,0.1,38,3.7,57.5,10.6c-0.1-1.6-0.2-3.3-0.2-5c0-2.5,0.1-4.9,0.4-7.4
		c-19.5-6.4-38.9-9.8-57.6-10c-97.1-0.8-180.6,84.3-199.7,105.4c18.9,21.4,100.9,107.7,198.1,108.4v0
		c97.3,0.7,180.6-84.3,199.8-105.4C445.8,258.7,435.3,247.4,421,234.3z"/>
</g>
</svg>
