<?xml version="1.0" encoding="utf-8"?>
<!-- Generator: Adobe Illustrator 24.0.1, SVG Export Plug-In . SVG Version: 6.00 Build 0)  -->
<svg version="1.1" id="Layer_1" xmlns="http://www.w3.org/2000/svg" xmlns:xlink="http://www.w3.org/1999/xlink" x="0px" y="0px"
	 viewBox="0 0 512 512" style="enable-background:new 0 0 512 512;" xml:space="preserve">
<style type="text/css">
	.st1{fill:#E0704E;}
</style>
<title>097 - Autism</title>
<desc>Created with Sketch.</desc>
<g>
	<path class="st1" d="M220.2,396.7h-25.6c-18.8,0-26.2-11.4-34.8-24.6c-1.2-1.8-2.4-3.7-3.7-5.6v35.4c0,3,2.4,5.4,5.4,5.4h91.7
		c3,0,5.4-2.4,5.4-5.4v-35.4c-1.3,1.9-2.5,3.8-3.7,5.6C246.4,385.3,239,396.7,220.2,396.7z"/>
	<path class="st1" d="M229,215.6c0-5.8,2.6-11.2,7.1-14.8c4.5-3.6,10.4-4.9,16.1-3.6c6.4,1.4,11.5,6.1,13.6,12.3
		c1,2.9,1.3,5.9,0.8,8.9h16.4v-24.3c0-2,1.1-3.9,3-4.8c1.8-0.9,4-0.7,5.6,0.5c2.2,1.7,5,2.1,7.6,1.2c2.6-0.9,4.5-3,5.2-5.7
		c0.6-2.4,0-5-1.6-7c-2.8-3.3-7.6-3.9-11.2-1.4c-1.6,1.2-3.8,1.4-5.7,0.5c-1.8-0.9-3-2.8-3-4.8V148h-64.9c-3,0-5.4,2.4-5.4,5.4v64.9
		h16.4C229.1,217.4,229,216.5,229,215.6z"/>
	<path class="st1" d="M112.5,223.6c-1.6-2.3-4.4-4.9-6.1-4.8c-1.8,3.2-2.2,16.6-0.9,29.4c1.8,9.4,6.4,18.1,13.2,24.9v-0.1
		c-0.1-7.2-0.9-14.3-2.4-21.3C114.5,242.5,113.2,233,112.5,223.6z"/>
	<path class="st1" d="M261.5,264.2c0-10.4,8.5-18.9,18.9-18.9c0.9,0,1.8,0.1,2.7,0.2v-16.4h-24.3c-2,0-3.9-1.1-4.8-3
		c-0.9-1.8-0.7-4,0.5-5.6c1.7-2.2,2.1-5,1.2-7.6c-0.9-2.6-3-4.5-5.7-5.2c-2.4-0.6-5,0-7,1.6c-3.4,2.7-4,7.7-1.4,11.2
		c1.2,1.6,1.4,3.8,0.5,5.7c-0.9,1.8-2.8,3-4.8,3h-24.3v64.9c0,3,2.4,5.4,5.4,5.4h64.9v-16.4c-0.9,0.1-1.8,0.2-2.7,0.2
		C269.9,283.1,261.5,274.7,261.5,264.2z"/>
	<path class="st1" d="M256,0C114.6,0,0,114.6,0,256s114.6,256,256,256s256-114.6,256-256S397.4,0,256,0z M289.2,329
		c-3.7,6.5-8.4,12.4-14,17.5c-2.1,2-4,3.9-5.7,5.9v49.4c0,9-7.3,16.2-16.2,16.2h-91.7c-9,0-16.2-7.3-16.2-16.2v-49.4
		c-1.8-2-3.6-3.9-5.7-5.9c-22.5-21.4-22.2-41.1-21.4-60.1c-12.5-8.6-21-21.9-23.5-36.9c-1.8-16.2-2-36.1,6.4-40.3
		c3.4-1.7,7.3-1.7,10.7-0.1c-0.3-10.1-0.2-22.2,0.5-37.1c3.4-73.6,87.6-78.1,88.4-78.1h13.1c1.7,0.1,36.2,1.8,61.8,22.9
		c1.6,1.2,2.3,3.2,2,5.1c-0.3,1.9-1.6,3.6-3.5,4.2s-3.9,0.3-5.4-1c-22.8-18.7-54.9-20.4-55.2-20.4H201c-2.8,0.1-74.9,4.1-77.9,67.8
		c-2.1,44.9,1.2,62.9,3.8,77.3c1.6,7.6,2.5,15.4,2.6,23.2c0,4.2-0.2,8.3-0.4,12.3c-0.9,19.4-1.6,34.8,17.9,53.3
		c8.4,8.2,15.7,17.5,21.8,27.5c8.9,13.6,13.3,19.7,25.7,19.7h25.6c12.4,0,16.8-6,25.7-19.7c6.1-10,13.4-19.3,21.8-27.5
		c4.7-4.3,8.8-9.3,12-14.9c1.4-2.6,4.7-3.6,7.3-2.1c1.3,0.7,2.2,1.8,2.6,3.2C290,326.2,289.9,327.7,289.2,329z M375,293.9
		c0,9-7.3,16.2-16.2,16.2H218.2c-9,0-16.2-7.3-16.2-16.2V153.4c0-9,7.3-16.2,16.2-16.2h70.3c3,0,5.4,2.4,5.4,5.4v21.8
		c6.2-0.9,12.4,1.3,16.6,5.9s5.9,11,4.5,17.1c-1.4,6.4-6.1,11.5-12.3,13.6c-2.9,1-5.9,1.3-8.9,0.8v16.4h16.4
		c-0.1-0.9-0.2-1.8-0.2-2.7c0-10.4,8.5-18.9,18.9-18.9c10.4,0,18.9,8.5,18.9,18.9c0,0.9-0.1,1.8-0.2,2.7h21.8c3,0,5.4,2.4,5.4,5.4
		V293.9z M418.2,180.4c0,3-2.4,5.4-5.4,5.4h-29.7c-2,0-3.9-1.2-4.8-3c-0.9-1.8-0.7-4,0.5-5.7c2.5-3.3,2.1-8-1-10.9s-7.8-2.8-10.9,0
		c-3.1,2.8-3.5,7.5-1,10.9c1.2,1.6,1.4,3.8,0.5,5.7c-0.9,1.8-2.8,3-4.8,3h-24.3c-6,0-10.8-4.8-10.8-10.8v-24.3c0-2,1.1-3.9,3-4.8
		c1.8-0.9,4-0.7,5.6,0.5c2.2,1.7,5,2.1,7.6,1.2c2.6-0.9,4.5-3,5.2-5.7c0.6-2.4,0-5-1.6-7c-2.8-3.3-7.6-3.9-11.2-1.4
		c-1.6,1.2-3.8,1.4-5.7,0.5c-1.8-0.9-3-2.8-3-4.8V99.3c0-3,2.4-5.4,5.4-5.4H402c9,0,16.2,7.3,16.2,16.2V180.4z"/>
	<path class="st1" d="M335,226.1c-0.9-1.8-0.7-4,0.5-5.7c2.5-3.3,2.1-8-1-10.9c-3.1-2.8-7.8-2.8-10.9,0c-3.1,2.8-3.5,7.5-1,10.9
		c1.2,1.6,1.4,3.8,0.5,5.7c-0.9,1.8-2.8,3-4.8,3h-24.3v24.3c0,2-1.2,3.9-3,4.8c-1.8,0.9-4,0.7-5.7-0.5c-3.3-2.5-8-2.1-10.9,1
		c-2.8,3.1-2.8,7.8,0,10.9s7.5,3.5,10.9,1c1.6-1.2,3.8-1.4,5.7-0.5c1.8,0.9,3,2.8,3,4.8v24.3h64.9c3,0,5.4-2.4,5.4-5.4v-64.9h-24.3
		C337.8,229.1,335.9,227.9,335,226.1z"/>
	<path class="st1" d="M402,104.8h-64.9v16.4c6.2-0.9,12.4,1.3,16.6,5.9c4.2,4.6,5.9,11,4.5,17.1c-1.4,6.4-6.1,11.5-12.3,13.6
		c-2.9,1-5.9,1.3-8.9,0.8V175h16.4c-0.1-0.9-0.2-1.8-0.2-2.7c0-10.4,8.5-18.9,18.9-18.9c10.4,0,18.9,8.5,18.9,18.9
		c0,0.9-0.1,1.8-0.2,2.7h16.4v-64.9C407.4,107.2,405,104.8,402,104.8z"/>
</g>
</svg>
