<?xml version="1.0" encoding="utf-8"?>
<!-- Generator: Adobe Illustrator 24.0.1, SVG Export Plug-In . SVG Version: 6.00 Build 0)  -->
<svg version="1.1" id="wheelchair" xmlns="http://www.w3.org/2000/svg" xmlns:xlink="http://www.w3.org/1999/xlink" x="0px" y="0px"
	 viewBox="0 0 512 512" style="enable-background:new 0 0 512 512;" xml:space="preserve">
<style type="text/css">
	.st0{fill:#EEA767;}
</style>
<g>
	<path class="st0" d="M176,280.5l-23.6-23.2c-9.4,11.8-15.6,26.2-17.3,42h33.1C169.5,292.4,172.2,286.1,176,280.5z"/>
	<path class="st0" d="M206.4,260.3v-33.2c-16.4,2-31.3,8.8-43.2,19l23.5,23.1C192.5,264.9,199.2,261.8,206.4,260.3z"/>
	<path class="st0" d="M162.2,369c12.1,10.7,27.4,17.9,44.3,19.9v-33.2c-7.8-1.6-14.8-5-20.8-9.8L162.2,369z"/>
	<path class="st0" d="M167.9,314.8h-33l0,0c1.3,16,7.3,30.8,16.6,42.8l23.7-23.2C171.5,328.6,168.9,322,167.9,314.8z"/>
	<path class="st0" d="M267,244.4c-12.5-10-28.1-16.4-45-17.6v32.9c7.8,0.9,15.1,3.7,21.3,7.9L267,244.4z"/>
	<path class="st0" d="M399.8,291.6c-3.6-17.7-19.3-31.1-38-31.1h-24.6c3.9,9.8,6.6,20.2,8,31.1H399.8z"/>
	<path class="st0" d="M190.9,115.4v65.1c2.6-0.5,5.2-0.9,7.8-1.3V107c0-9.5-7.8-17.3-17.3-17.3h-33.2c-2.1,0-3.9,1.7-3.9,3.9
		c0,2.1,1.7,3.9,3.9,3.9H173C182.9,97.5,190.9,105.5,190.9,115.4z"/>
	<path class="st0" d="M264,299.3h33.1c-1.8-16.7-8.7-31.9-19-44.1l-23.5,23C259.3,284.3,262.6,291.5,264,299.3z"/>
	<circle class="st0" cx="216.1" cy="308.1" r="33.2"/>
	<path class="st0" d="M216.1,193.5c-63.1,0-114.5,51.4-114.5,114.5S153,422.6,216.1,422.6s114.5-51.4,114.5-114.5
		S279.3,193.5,216.1,193.5z M216.1,405.1c-53.5,0-97-43.5-97-97s43.5-97,97-97c53.5,0,97,43.5,97,97S269.6,405.1,216.1,405.1z"/>
	<path class="st0" d="M222,356.4v32.9c17.4-1.2,33.4-8,46.1-18.5l-23.6-23.2C238,352.3,230.3,355.4,222,356.4z"/>
	<path class="st0" d="M404.4,377h-78.1c-1.7,2.7-3.4,5.2-5.3,7.8h83.3c2.1,0,3.9-1.7,3.9-3.9C408.3,378.7,406.6,377,404.4,377z"/>
	<path class="st0" d="M256,0C114.6,0,0,114.6,0,256s114.6,256,256,256s256-114.6,256-256S397.4,0,256,0z M404.4,400.3h-96.3
		c-0.1,0-0.2,0-0.3,0c-23.5,23.4-55.9,37.9-91.7,37.9c-71.7,0-130-58.3-130-130c0-57.5,37.5-106.3,89.3-123.5v-69.2
		c0-1.3-1.1-2.4-2.4-2.4h-24.8c-10.7,0-19.4-8.7-19.4-19.4c0-10.7,8.7-19.4,19.4-19.4h33.2c18.1,0,32.8,14.7,32.8,32.8v71.1
		c0.6,0,1.3,0,1.9,0c30.7,0,58.9,10.7,81.1,28.5c0.7-0.2,1.5-0.4,2.3-0.4h69.9c4.3,0,7.8,3.5,7.8,7.8c0,4.3-3.5,7.8-7.8,7.8h-56.2
		c6.3,7.1,11.9,14.9,16.6,23.3h31.9c30,0,54.3,24.4,54.3,54.3c0,4.3-3.5,7.8-7.8,7.8h-62.1c0,0.3,0,0.6,0,1c0,19-4.1,37.1-11.5,53.4
		h69.7c10.7,0,19.4,8.7,19.4,19.4C423.8,391.5,415.1,400.3,404.4,400.3z"/>
	<path class="st0" d="M264.4,314.8c-1.1,8.1-4.3,15.5-8.9,21.9l23.6,23.1c10.3-12.4,16.9-28,18.3-45H264.4z"/>
	<polygon points="152.4,257.3 152.4,257.3 152.4,257.3 	"/>
</g>
</svg>
