<svg id="speach_x5F_impared" enable-background="new 0 0 300 300" height="512" viewBox="0 0 300 300" width="512" xmlns="http://www.w3.org/2000/svg">
<path d="m46 146v12c0 2.209 1.791 4 4 4s4-1.791 4-4v-12c0-2.209-1.791-4-4-4s-4 1.791-4 4z"/>
<path d="m54 174c0-2.209-1.791-4-4-4s-4 1.791-4 4v12c0 2.209 1.791 4 4 4s4-1.791 4-4z"/>
<path d="m42 162h-12c-2.209 0-4 1.791-4 4s1.791 4 4 4h12c2.209 0 4-1.791 4-4s-1.791-4-4-4z"/>
<path d="m54 166c0 2.209 1.791 4 4 4h12c2.209 0 4-1.791 4-4s-1.791-4-4-4h-12c-2.209 0-4 1.791-4 4z"/>
<circle cx="54" cy="106" r="4"/><circle cx="250" cy="118" r="4"/>
<path d="m52 62c7.72 0 14-6.28 14-14s-6.28-14-14-14-14 6.28-14 14 6.28 14 14 14zm0-20c3.309 0 6 2.691 6 6s-2.691 6-6 6-6-2.691-6-6 2.691-6 6-6z"/>
<path d="m244 150c-7.72 0-14 6.28-14 14s6.28 14 14 14 14-6.28 14-14-6.28-14-14-14zm0 20c-3.309 0-6-2.691-6-6s2.691-6 6-6 6 2.691 6 6-2.691 6-6 6z"/>
<path d="m192.648 184.432-34.648-5.9v-15.249c12.824-7.458 22.495-19.661 26.67-34.099 2.505.054 4.941-.652 7.282-2.111 3.635-2.265 6.093-5.955 6.575-9.872.483-3.926-.73-7.863-3.331-10.805-1.725-1.949-3.949-3.348-6.397-4.07.017-1.039.044-2.17.064-3.034.024-1.03.06-11.501.06-11.501 0-18.426-8.328-33.366-23.451-42.068-18.023-10.371-43.149-10.328-61.103.106-13.182 7.661-20.408 19.759-20.347 34.063.009 2.047.029 4.156.051 6.217.01 1.077.021 2.132.029 3.158.009 4.453-.014 9.793-.084 13.024-2.288.653-4.373 1.9-6.076 3.665-2.607 2.701-3.97 6.259-3.836 10.02.15 4.193 2.526 8.24 6.357 10.824 2.399 1.619 4.851 2.415 7.406 2.394 3.988 14.485 13.447 26.753 26.13 34.366v13.993l-35.149 6.593c-14.399 2.701-24.85 15.293-24.85 29.944v55.91c0 2.209 1.791 4 4 4h156c2.209 0 4-1.791 4-4v-55.534c0-14.902-10.662-27.532-25.352-30.034zm-84.258-131.687c15.351-8.92 37.679-8.957 53.092-.09 8.869 5.104 19.441 15.343 19.441 35.135v6.156c-11.638 8.512-24.783 11.694-37.215 8.966-10.975-2.409-20.071-9.235-24.959-18.729-.586-1.137-1.68-1.926-2.943-2.122-.205-.031-.409-.047-.613-.047-1.056 0-2.078.418-2.834 1.178-4.958 4.979-12.187 7.983-20.239 8.5-.004-.846-.01-1.729-.018-2.631-.008-3.033-.031-5.688-.064-6.919-.006-.765-.012-1.531-.015-2.284-.063-14.511 8.866-22.754 16.367-27.113zm-13.581 71.095c-.23-1.123-.931-2.093-1.924-2.664-.995-.572-2.182-.688-3.271-.324-1.509.507-2.818.57-4.676-.683-1.692-1.143-2.779-2.858-2.838-4.479-.056-1.57.512-3.054 1.598-4.179 1.087-1.126 2.547-1.746 4.11-1.746 1.08 0 2.124-.441 2.877-1.216 1.117-1.148 1.316-1.36 1.384-8.848 8.328-.439 16.049-3.078 22.112-7.554 6.311 9.366 16.207 16.031 27.812 18.578 3.488.767 7.014 1.145 10.546 1.145 9.613 0 19.261-2.811 28.245-8.235-.004 3.191.251 3.885 1.259 4.916.752.771 1.803 1.215 2.88 1.215 1.636 0 3.195.703 4.28 1.93 1.1 1.243 1.591 2.851 1.385 4.526-.19 1.543-1.262 3.062-2.866 4.061-1.6.998-2.956 1.154-4.685.546-1.081-.381-2.275-.279-3.278.278-1.002.56-1.716 1.521-1.96 2.643-3.777 17.327-16.586 31.481-33.426 36.94l-1.725.559c-4.729 1.534-9.768 1.597-14.187.174-17.137-5.517-30.031-19.918-33.652-37.583zm31.202 45.197c2.955.951 6.03 1.426 9.146 1.426 3.307 0 6.66-.535 9.959-1.605l1.724-.559c1.069-.346 2.12-.729 3.16-1.135v13.596c-8.333 6.089-19.649 6.124-28.018.098.003-.062.018-.12.018-.182v-13.113c1.315.534 2.647 1.035 4.011 1.474zm83.989 96.963h-20v-44c0-2.209-1.791-4-4-4s-4 1.791-4 4v44h-88v-44c0-2.209-1.791-4-4-4s-4 1.791-4 4v44h-24v-51.91c0-10.804 7.707-20.09 18.325-22.081l34.552-6.481 1.629 1.252c11.484 8.817 27.499 8.783 38.944-.086l.509-.394 35.346 6.019c10.833 1.844 18.695 11.159 18.695 22.147z"/>
<path d="m258.46 26h-48.92c-7.552 0-15.54 8.418-15.54 16.376v27.82c0 8.32 8.354 14.773 15.54 14.773h.46v11.428c0 1.602.955 3.049 2.428 3.678.507.217 1.041.322 1.571.322 1.011 0 2.006-.383 2.766-1.109l13.894-13.288h27.801c7.697 0 15.54-7.976 15.54-15.804v-27.82c0-7.958-7.988-16.376-15.54-16.376zm7.54 44.196c0 3.693-4.494 7.804-7.54 7.804h-29.405c-1.03 0-2.021.397-2.765 1.109l-8.29 7.928v-6.067c0-2.209-1.791-4-4-4h-4.46c-3.292 0-7.54-3.284-7.54-6.773v-27.82c0-3.803 4.631-8.376 7.54-8.376h48.92c2.909 0 7.54 4.573 7.54 8.376z"/>
<path d="m247.206 42.874c-1.561-1.562-4.096-1.562-5.656 0l-6.953 6.953-6.953-6.953c-1.561-1.562-4.096-1.562-5.656 0-1.562 1.562-1.562 4.095 0 5.656l6.953 6.953-6.953 6.953c-1.562 1.562-1.562 4.095 0 5.656.78.781 1.805 1.172 2.828 1.172s2.048-.391 2.828-1.172l6.953-6.953 6.953 6.953c.78.781 1.805 1.172 2.828 1.172s2.048-.391 2.828-1.172c1.562-1.562 1.562-4.095 0-5.656l-6.953-6.953 6.953-6.953c1.563-1.561 1.563-4.094 0-5.656z"/></svg>